<?xml version="1.0" encoding="UTF-8"?>
<svg width="1034px" height="1001px" viewBox="0 0 1034 1001" version="1.1" xmlns="http://www.w3.org/2000/svg" xmlns:xlink="http://www.w3.org/1999/xlink">
    <title>avatarSVG</title>
    <g id="Page-1" stroke="none" stroke-width="1" fill="none" fill-rule="evenodd">
        <g id="Large" transform="translate(-338, -9)">
            <g id="avatarSVG" transform="translate(341.909, 17.8341)">
                <g id="Cara" transform="translate(244.5487, 135.9111)">
                    <ellipse id="nose-shadow" fill-opacity="0.44" fill="#FF2E2E" transform="translate(428.0164, 302.9363) rotate(19) translate(-428.0164, -302.9363)" cx="428.016359" cy="302.93629" rx="8.18181818" ry="22.5"></ellipse>
                    <path d="M438.367342,277.396241 C443.98338,311.879734 442.123761,326.544705 432.788486,321.391156 C422.902863,313.180803 424.501952,283.596103 430.599576,293.689164" id="ear-shadow" stroke="#FF2E2E" stroke-width="3" stroke-linecap="round" transform="translate(433.6149, 299.8962) rotate(19) translate(-433.6149, -299.8962)"></path>
                    <g id="Eyes" transform="translate(202.9877, 239.8754) rotate(-2) translate(-202.9877, -239.8754)translate(89.7652, 216.9296)">
                        <line x1="0.484976071" y1="45.3915934" x2="29.4451051" y2="45.3915934" id="under-left" stroke="#FF2E2E" stroke-width="6" stroke-linecap="round"></line>
                        <line x1="197.484976" y1="45.3915934" x2="226.445105" y2="45.3915934" id="under-right" stroke="#FF2E2E" stroke-width="6" stroke-linecap="round"></line>
                        <circle id="right-eye" fill-opacity="0.43979458" fill="#FF2E2E" cx="14.0643326" cy="14.0643326" r="14.0643326"></circle>
                        <circle id="left-eye" fill-opacity="0.43979458" fill="#FF2E2E" cx="211.969585" cy="14.0643326" r="14.0643326"></circle>
                    </g>
                    <g id="Cejas" transform="translate(200.9534, 201.5889) rotate(-2) translate(-200.9534, -201.5889)translate(40.4534, 179.0889)" fill="#FF2E2E">
                        <path d="M109.80927,13.5663602 C111.539409,17.0592577 111.875107,21.6612353 109.80927,24.1742886 C107.743433,26.687342 74.5856673,15.3592165 59.1876474,16.233322 C45.4379936,12.7850697 -0.206251956,51.0095631 0.00140773435,44.1812011 C0.00140773435,39.464086 40.4326419,-2.04770206 49.3716922,0.346689133 C64.0326816,-2.20748479 108.079131,10.0734628 109.80927,13.5663602 Z" id="left-ceja"></path>
                        <path d="M319.573737,13.5663602 C321.303875,17.0592577 321.639574,21.6612353 319.573737,24.1742886 C317.507899,26.687342 284.350134,15.3592165 268.952114,16.233322 C255.20246,12.7850697 209.558215,51.0095631 209.765874,44.1812011 C209.765874,39.464086 250.197109,-2.04770206 259.136159,0.346689133 C273.797148,-2.20748479 317.843598,10.0734628 319.573737,13.5663602 Z" id="right-ceja" transform="translate(265.3822, 22.5) scale(-1, 1) translate(-265.3822, -22.5)"></path>
                    </g>
                    <path d="M35.1279979,75.8056062 C20.7312554,117.312956 13.0629968,174.082933 12.1232223,246.115537 C5.86664667,235.807535 2.00076832,235.807535 0.525587233,246.115537 C-1.68718439,261.57754 2.71563686,343.174539 20.8613339,381.236823 C39.007031,419.299108 39.007031,501.771837 152.649354,568.129085 C193.244608,582.841392 231.753803,582.841392 268.176941,568.129085 C345.947736,536.057187 393.445981,472.084758 410.671677,376.211799 C431.243328,372.17159 439.104218,353.655926 443.341457,345.855783 C447.578695,338.055641 494.883315,188.896428 435.80548,204.280422 C425.603434,215.852143 419.656159,240.349589 417.963654,277.77276 C415.258738,185.613218 408.042063,137.756317 396.313629,134.202056 C396.313629,119.517222 450.434072,87.9714636 320.134219,3.70439581 C321.714895,16.3548156 318.342426,22.0459171 315.91126,29.6050902 C303.402434,21.7203713 294.422337,6.78053143 276.129272,0 C283.083577,14.8677104 286.132979,19.2220881 286.818053,33.7940483 C279.99078,28.8961992 249.251905,6.97942242 220.683779,3.70439581 C192.966672,-0.594842087 165.142261,6.97942242 136.983009,25.0201276 C217.54401,45.533825 106.086309,21.4727968 35.1279979,75.8056062 Z" id="face-siluet" stroke="#FF2E2E" stroke-width="10" stroke-linejoin="round"></path>
                </g>
                <g id="Pelo" transform="translate(232.0022, 0)">
                    <path d="M15.4652689,372.107141 C4.98074536,309.308401 -0.171345401,257.360889 0.0089965712,216.264604 C4.65697417,174.789641 44.7950635,58.1286567 80.8563598,48.8671218 C116.917656,39.6055869 149.967164,19.682551 173.73796,0 C170.104919,28.6377538 166.924219,37.9966278 148.882119,55.4031602 C195.2356,13.2524405 202.217898,8.73475825 278.460228,2.60811693 C269.135709,13.0377218 257.1315,20.3181184 255.181854,31.7125261 C277.796386,22.287805 314.123934,10.1977086 356.95889,31.7125261 C319.927065,38.5234045 330.948736,27.7829447 293.27848,48.5677185 C350.027211,38.1467024 402.842853,45.6794928 448.512097,119.713457 C427.790866,112.406091 424.872996,97.8544861 408.26808,105.558594 C441.946266,127.574495 467.055207,136.492407 461.751922,219.51 C459.449696,242.403789 455.471398,281.949618 449.817029,338.147487" id="head-siluet" stroke="#FF2E2E" stroke-width="7" stroke-linecap="round"></path>
                    <path d="M436.615087,365.587663 C434.60486,376.630127 438.971857,281.283876 425.501593,268.132509 C418.94176,258.253554 439.211491,253.870521 425.501593,215.050023 C409.99387,189.904039 387.394826,152.591403 328.457839,126.920008 C323.117884,138.487019 336.990358,144.626941 331.035982,161.916205 C314.290758,146.062661 287.00012,115.146508 275.7485,120.501409 C273.330522,124.27607 299.572609,146.157028 297.179811,153.104103 C295.517975,157.928958 275.151548,145.166681 261.949217,141.789435 C216.057512,110.724481 167.411431,150.4452 149.529588,160.931273 C137.330088,168.08517 169.970841,148.856262 173.773753,168.841867 C175.450627,184.130513 108.681658,168.841867 47.6745771,211.716752 C34.3001831,244.31253 25.7958938,299.002461 22.1617092,375.786544 C9.22467105,312.750421 6.0196277,254.901444 12.5465792,202.239613 C17.1945568,160.764651 60.7950635,62.1286567 96.8563598,52.8671218 C132.917656,43.6055869 165.967164,23.682551 189.73796,4 C186.104919,32.6377538 182.924219,41.9966278 164.882119,59.4031602 C211.2356,17.2524405 218.217898,12.7347583 294.460228,6.60811693 C285.135709,17.0377218 273.1315,24.3181184 271.181854,35.7125261 C293.796386,26.287805 330.123934,14.1977086 372.95889,35.7125261 C335.927065,42.5234045 346.948736,31.7829447 309.27848,52.5677185 C366.027211,42.1467024 424.489309,46.4674455 470.158554,120.501409 C449.437322,113.194044 432.993395,94.4373998 416.388479,102.141508 C448.887936,119.552335 483.816529,133.310217 477.751922,223.51 C475.449696,246.403789 471.036421,283.953901 464.512097,336.160337 C461.805434,335.640427 459.823957,335.418661 458.567667,335.495038 C449.679582,336.035399 441.18557,350.083116 436.615087,365.587663 Z" id="Hair-shadow" fill-opacity="0.44" fill="#FF2E2E"></path>
                </g>
                <g id="Nariz" transform="translate(389.2054, 355.8245)">
                    <path d="M85.3695445,140.3436 C90.413064,139.45843 92.003844,137.653275 89.6832729,136.134601 C87.6465394,134.54985 85.1435833,133.229215 83.3321422,133.361955 C80.9643793,133.624207 77.4593039,135.875011 76.263959,138.212194 C75.3524518,140.483298 79.7697032,141.358283 85.3695445,140.3436 Z" id="Oval" fill-opacity="0.44" fill="#FF2E2E"></path>
                    <path d="M110.906321,105.538254 C80.8515524,122.502819 105.123495,147.894778 112.924549,142.705603" id="Path-10-Copy" stroke="#FF2E2E" stroke-width="5" stroke-linecap="round" transform="translate(104.5952, 124.4651) scale(-1, 1) rotate(8) translate(-104.5952, -124.4651)"></path>
                    <path d="M26.2047846,0 C53.5052332,69.1934459 16.8855638,104.995417 16.8855638,122.785336 C18.2479437,158.606001 41.8173393,150.341414 51.0008153,150.341414 C71.5433565,145.687412 71.5964766,130.397449 87.97858,133.990139 C101.362591,142.990139 83.4103905,142.577891 76.0271083,142.52123" id="Path-11" stroke="#FF2E2E" stroke-width="5" stroke-linecap="round"></path>
                    <path d="M11.4766102,114.163865 C11.4766102,122.449101 6.92228419,131.610558 14.8855638,144.367017 C22.8488435,157.123477 0,142.486932 0,133.476028 C0,124.465125 11.4766102,105.878628 11.4766102,114.163865 Z" id="Path-9" fill-opacity="0.444055944" fill="#FF2E2E"></path>
                    <path d="M68.8855638,37.9431028 C69.4003562,40.610364 70.4964042,57.2499259 72.173708,87.8617886 C85.9870318,93.2248752 93.166752,96.0567822 93.7128686,96.3575093 C94.5320435,96.8086001 68.1133753,33.942211 68.8855638,37.9431028 Z" id="Path-12" fill-opacity="0.44" fill="#FF2E2E"></path>
                </g>
                <g id="Boca" transform="translate(367.0942, 549.3307)">
                    <path d="M0.465494809,14.9031363 C16.5578325,24.2184378 154.966176,34.4398619 161.465495,5.59229295" id="Path-3" stroke="#FF2E2E" stroke-width="10" stroke-linecap="round" transform="translate(80.9655, 15.0766) rotate(-4) translate(-80.9655, -15.0766)"></path>
                    <path d="M58.6918154,43.8168301 C89.9967963,43.8168301 90.423904,46.191183 108.140552,40.6705746 C125.8572,35.1499663 95.0649635,56.0975288 85.5308799,56.0975288 C75.9967963,56.0975288 27.3868346,43.8168301 58.6918154,43.8168301 Z" id="Path-10" fill-opacity="0.442143794" fill="#FF2E2E"></path>
                </g>
                <g id="Cuello" transform="translate(354.091, 627.8079)">
                    <line x1="0.5" y1="50.857965" x2="10.5" y2="161.857965" id="Line" stroke="#FF2E2E" stroke-width="7" stroke-linecap="round"></line>
                    <path d="M257.453636,0 C271.753168,37.8909713 285.601967,44.6473142 316.089152,58.7996997" id="Path-14" stroke="#FF2E2E" stroke-width="7"></path>
                    <path d="M259.117919,25.3834247 C246.086427,43.0366385 231.014353,55.6678263 213.901696,63.2769881 L240.897259,122.187943 C256.143322,57.6515975 262.216875,25.3834247 259.117919,25.3834247 Z" id="Path-15" fill-opacity="0.44" fill="#FF2E2E" transform="translate(236.9024, 73.7857) rotate(-3) translate(-236.9024, -73.7857)"></path>
                </g>
                <g id="T-Shirt" transform="translate(0, 686.6076)">
                    <path d="M357.580772,26.0573033 C319.80622,43.0463948 255.342137,61.3408905 164.188522,80.9407903 C86.4996849,103.058265 63.5518356,119.689869 31.8248719,188.7884 C15.9270789,225.679832 9.20804601,234.215089 2.84217094e-14,266.598998" id="shirt-line-left" stroke="#FF2E2E" stroke-width="7" stroke-linecap="round"></path>
                    <path d="M357.580772,26.0573033 C326.214323,123.915336 355.036775,168.895149 444.048126,160.996744 C577.565153,149.149135 658.687215,27.499338 670.180123,4.54747351e-13" id="shirt-line-neck" stroke="#FF2E2E" stroke-width="7" stroke-linecap="round"></path>
                    <path d="M668.617244,0 C807.615882,52.8980044 883.729505,82.4346881 896.958114,88.6100512 C916.801028,97.8730958 980.046552,110.518135 1010.8278,181.5693 C1016.13991,193.831032 1021.37918,210.88217 1026.54561,232.722713" id="shirt-line-right" stroke="#FF2E2E" stroke-width="7" stroke-linecap="round"></path>
                    <path d="M11.1615505,285.919576 C3.55271368e-14,253.53989 53.664851,188.569382 76.7991925,152.881581 C99.9335339,117.19378 133.480601,103.032023 173.188522,94.0582653 C212.896444,85.0845072 328.781326,55.5256751 341.551259,55.5256751 C354.321193,55.5256751 282.332104,172.5693 432.733297,172.5693 C583.13449,172.5693 644.84421,79.4972491 677.617244,38.5582653 C688.28535,-1.18319504 885.25455,80.7986791 912.990584,94.0582653 C940.726617,107.317852 1014.83857,159.552549 1014.83857,232.722713 C1014.83857,305.892877 948.167651,281.518363 888.145178,274.058681 C828.122704,266.598998 750.447589,260.034477 611.544608,285.919576 C472.641627,311.804676 405.933472,268.561827 295.566621,285.919576 C185.199771,303.277326 22.3231009,318.299262 11.1615505,285.919576 Z" id="shirt-shadow" fill-opacity="0.44" fill="#FF2E2E"></path>
                </g>
            </g>
        </g>
    </g>
</svg>